<?xml version="1.0" encoding="UTF-8"?>
<svg version="1.1" xmlns="http://www.w3.org/2000/svg" width="1080" height="1080">
<path d="M0 0 C356.4 0 712.8 0 1080 0 C1080 356.4 1080 712.8 1080 1080 C723.6 1080 367.2 1080 0 1080 C0 723.6 0 367.2 0 0 Z " fill="#1D3456" transform="translate(0,0)"/>
<path d="M0 0 C35.97 0 71.94 0 109 0 C109 191.73 109 383.46 109 581 C73.03 581 37.06 581 0 581 C0 502.79 0 424.58 0 344 C-57.75 344 -115.5 344 -175 344 C-172.97778357 339.95556714 -170.74828759 337.71418129 -167.4375 334.8125 C-166.34887636 333.83617648 -165.26165048 332.85829232 -164.17578125 331.87890625 C-163.63775879 331.39437988 -163.09973633 330.90985352 -162.54541016 330.41064453 C-157.7226738 326.00846907 -153.10551694 321.40343867 -148.9375 316.375 C-146.19975572 313.08970687 -143.11284459 310.37958698 -139.8671875 307.60546875 C-131.2669232 300.21068083 -124.10544684 291.23418602 -117.22949219 282.26939392 C-114.12756451 278.27932365 -110.8207999 274.46866999 -107.48553467 270.6729269 C-104.99165057 267.8207574 -102.60386298 264.9536412 -100.375 261.88842773 C-92.29864092 251.07262655 -86.9110152 248.77104458 -74 241 C-49.91 240.67 -25.82 240.34 -1 240 C-0.67 160.8 -0.34 81.6 0 0 Z " fill="#FD961E" transform="translate(650,249)"/>
<path d="M0 0 C1.87327147 0.01493336 3.74657433 0.02631521 5.61988831 0.03430176 C10.5345691 0.06475019 15.44733821 0.14324858 20.36126709 0.23193359 C25.38185772 0.31398366 30.40275933 0.35035402 35.42382812 0.390625 C45.26385771 0.47625128 55.10247261 0.61266858 64.94140625 0.78125 C63.36552563 4.86446165 60.42635251 7.30286319 57.22802734 10.12792969 C49.69834137 16.93039632 42.52294522 24.05405256 35.35546875 31.234375 C34.00090807 32.58825963 32.64619918 33.94199601 31.29135132 35.29559326 C28.47792998 38.10755429 25.66628944 40.92128006 22.85595703 43.73632812 C19.27214108 47.32586804 15.68381519 50.91086081 12.09415627 54.49455643 C9.30581126 57.27927396 6.51986936 60.06638587 3.73463058 62.8542099 C2.41260301 64.17689927 1.08984689 65.49886091 -0.23368454 66.82004547 C-9.15354993 75.66931865 -9.15354993 75.66931865 -17.52383423 85.03240967 C-19.05859375 86.78125 -19.05859375 86.78125 -21.61498451 88.76495361 C-25.08856141 93.0526021 -24.75528214 96.423039 -24.69110107 101.79083252 C-24.69875118 102.80712006 -24.7064013 103.82340761 -24.71428323 104.87049174 C-24.73390847 108.28023529 -24.71790981 111.68888278 -24.70214844 115.09863281 C-24.70896229 117.54107344 -24.71798306 119.98350877 -24.72904968 122.42593384 C-24.74802008 127.68670486 -24.75178945 132.94715222 -24.74187469 138.20792389 C-24.72765131 145.81512545 -24.74191221 153.42206631 -24.76329663 161.02924141 C-24.79731611 173.3730214 -24.8098247 185.71672361 -24.80810547 198.06054688 C-24.80649534 210.0481987 -24.81252227 222.0357981 -24.83056641 234.0234375 C-24.83167438 234.76233338 -24.83278236 235.50122927 -24.83392391 236.26251593 C-24.84620279 244.32332244 -24.86031475 252.38412526 -24.87526321 260.44492722 C-24.8791941 262.58062096 -24.88311733 264.71631472 -24.88703045 266.85200849 C-24.88962315 268.25942885 -24.89224672 269.66684915 -24.89490166 271.07426938 C-24.91168411 280.04275431 -24.92040945 289.01119819 -24.92057848 297.97969866 C-24.9208155 303.11048538 -24.92556136 308.24126717 -24.93055153 313.37205124 C-24.93191898 315.76144501 -24.93152854 318.15084049 -24.92930412 320.54023361 C-24.9264206 323.78671052 -24.92948853 327.03312836 -24.934021 330.27960205 C-24.9315885 331.23823379 -24.92915601 332.19686553 -24.92664981 333.18454671 C-24.94461464 339.66727089 -24.94461464 339.66727089 -26.05859375 340.78125 C-27.46037705 340.87887523 -28.86703828 340.90756658 -30.2722168 340.90823364 C-31.18087494 340.91105347 -32.08953308 340.91387329 -33.02572632 340.91677856 C-34.53279648 340.91374222 -34.53279648 340.91374222 -36.0703125 340.91064453 C-37.12223785 340.91239685 -38.17416321 340.91414917 -39.25796509 340.91595459 C-42.75402449 340.92037543 -46.25003378 340.91743429 -49.74609375 340.9140625 C-52.1636557 340.91473547 -54.58121758 340.91570544 -56.9987793 340.91696167 C-62.07308596 340.91843896 -67.14737506 340.91628309 -72.22167969 340.91162109 C-78.74244078 340.9059238 -85.26316071 340.90920263 -91.78392029 340.91519356 C-96.77828281 340.91879833 -101.77263549 340.91766097 -106.76699829 340.91506577 C-109.17208867 340.91439626 -111.57717993 340.91522572 -113.98226929 340.91754532 C-117.3371621 340.92007048 -120.69198725 340.91623317 -124.046875 340.91064453 C-125.05158844 340.91266876 -126.05630188 340.91469299 -127.09146118 340.91677856 C-128.00011932 340.91395874 -128.90877747 340.91113892 -129.8449707 340.90823364 C-130.63917923 340.90785662 -131.43338776 340.90747959 -132.25166321 340.90709114 C-134.05859375 340.78125 -134.05859375 340.78125 -135.05859375 339.78125 C-135.1831784 336.93653889 -135.24209258 334.11522444 -135.25959778 331.26907349 C-135.26891899 330.36534811 -135.27824021 329.46162273 -135.28784388 328.53051174 C-135.31778162 325.47755927 -135.34025323 322.42459925 -135.36254883 319.37158203 C-135.38189654 317.19226341 -135.40152066 315.01294724 -135.42140198 312.83363342 C-135.59506549 292.90363717 -135.68841067 272.97287174 -135.7624712 253.04228401 C-135.77259582 250.37291534 -135.78279042 247.70354718 -135.79321289 245.03417969 C-135.79579511 244.37072351 -135.79837734 243.70726733 -135.80103781 243.02370642 C-135.84142477 232.9594246 -135.91938746 222.89589092 -136.01879883 212.83203125 C-136.13388029 201.14462563 -136.20676416 189.45786905 -136.22832602 177.76990211 C-136.24109284 171.58333182 -136.27446211 165.39846046 -136.35791969 159.21240616 C-136.43569729 153.38580037 -136.45644269 147.56171862 -136.43417931 141.73466301 C-136.43587871 139.6009107 -136.45800492 137.46705748 -136.5025177 135.33376884 C-136.83828201 118.36819696 -136.83828201 118.36819696 -132.47031212 113.21154404 C-130.45138925 111.21977866 -128.44150605 109.68900739 -126.12342358 108.01041985 C-122.71042182 105.52801103 -120.65798004 103.08352729 -118.05859375 99.78125 C-114.71005075 96.30638432 -111.19276514 93.06257648 -107.61328125 89.828125 C-98.49562235 81.48654065 -89.81669294 72.6905738 -81.09082031 63.94384766 C-78.65715672 61.50444743 -76.21897266 59.06962231 -73.77946663 56.63606644 C-71.41433403 54.2754442 -69.053048 51.91098962 -66.69140625 49.546875 C-65.82774445 48.68523743 -64.96408264 47.82359985 -64.07424927 46.93585205 C-59.72799036 42.57285311 -55.53761388 38.14062082 -51.52191162 33.47140503 C-49.80451236 31.48778202 -48.00954855 29.60297949 -46.15625 27.74609375 C-45.49302734 27.08158203 -44.82980469 26.41707031 -44.14648438 25.73242188 C-43.47810547 25.06791016 -42.80972656 24.40339844 -42.12109375 23.71875 C-41.45658203 23.05037109 -40.79207031 22.38199219 -40.10742188 21.69335938 C-36.23536674 17.8288155 -32.27493563 14.17270044 -28.05838013 10.68614197 C-26.00535147 8.89823161 -26.00535147 8.89823161 -24.81323242 6.71653748 C-19.31786442 -2.12025354 -9.16965062 -0.21443387 0 0 Z " fill="#FD961D" transform="translate(455.05859375,489.21875)"/>
<path d="M0 0 C35.97 0 71.94 0 109 0 C110.84446453 1.84446453 110.25192392 4.84270557 110.33558655 7.32081604 C110.35901908 7.98921271 110.38245161 8.65760938 110.40659422 9.34626049 C110.48363997 11.60382353 110.55280071 13.86154829 110.62133789 16.11938477 C110.64680002 16.90814373 110.67226215 17.69690269 110.69849586 18.50956345 C111.20416455 34.1793994 111.50550302 49.8527139 111.74012089 65.52873325 C111.8931308 75.5025625 112.10593122 85.46770202 112.46899414 95.4362793 C115.06255569 168.05429046 115.06255569 168.05429046 100.93814373 184.74633312 C94.6893741 191.31893321 87.51453543 196.37082126 79.72254562 200.93311691 C76.1071195 203.17238241 73.06026291 206.07221771 70 209 C69.154375 209.7425 68.30875 210.485 67.4375 211.25 C65.70271056 214.56872763 66.09448539 215.85940432 66.625 219.5 C67.0078125 222.42578125 67.0078125 222.42578125 67 225 C64.5 227.6875 64.5 227.6875 62.81640625 228.76171875 C60.62678217 230.25443022 59.14496765 231.97730755 57.4375 234 C56.84839844 234.67933594 56.25929688 235.35867188 55.65234375 236.05859375 C54.24753006 237.70916681 52.87065222 239.38345103 51.5 241.0625 C49 243 49 243 45.5 242.5625 C44.345 242.376875 43.19 242.19125 42 242 C38.59646746 244.04211952 36.13706547 246.1339774 35 250 C35.15060264 253.53916198 35.8408493 255.71352875 37.5625 258.8125 C40.45033635 261.404148 42.23771678 261.88604805 46.03515625 262.140625 C49.0024458 261.92825438 50.7316057 260.86808943 53 259 C55.34808968 255.47786548 54.98714256 254.98056926 54.4375 251 C54.30765808 246.77166975 54.79161607 245.27841741 57.37109375 241.83203125 C60.07748919 238.99223787 62.90103186 236.40565545 66 234 C66.66 234 67.32 234 68 234 C68.28875 233.38125 68.5775 232.7625 68.875 232.125 C70 230 70 230 72 228 C73.81030273 228.32666016 73.81030273 228.32666016 75.99609375 228.9140625 C79.27360371 229.35141406 80.63172644 229.2168333 83.51611328 227.51855469 C86.19341441 225.26524174 88.625471 222.88576378 91.0625 220.375 C91.92810547 219.57320312 92.79371094 218.77140625 93.68554688 217.9453125 C97.28572842 214.33092345 99.7598944 211.7435054 100.47070312 206.58203125 C100.45941824 203.12295067 100.45941824 203.12295067 100.08227539 199.84521484 C99.99063141 196.67601908 100.3651573 195.63644326 102.375 193.25 C106.59826069 189.63006226 109.62893237 189.51974785 115.08984375 189.61328125 C119.06131421 190.1410337 121.56081551 191.2806349 124.58984375 193.88671875 C127.47810471 198.21510983 126.9418718 203.06902413 126 208 C124.25 211.0625 124.25 211.0625 122 213 C121.41149261 213.54068115 120.82298523 214.0813623 120.21664429 214.63842773 C117.30884256 216.42454299 115.64299751 216.06838126 112.28369141 215.72265625 C107.56191409 215.61456834 105.1408593 216.00258655 101.54833984 219.12109375 C100.1548236 220.52984549 98.79321247 221.97069654 97.4609375 223.4375 C96.72799469 224.19216553 95.99505188 224.94683105 95.23989868 225.72436523 C92.92147813 228.12271636 90.64809552 230.55872337 88.375 233 C86.05784396 235.43188574 83.73226937 237.85536795 81.40298462 240.27563477 C79.96048891 241.78052636 78.52674463 243.2938639 77.10263062 244.81616211 C76.46080841 245.49686768 75.81898621 246.17757324 75.15771484 246.87890625 C74.59434418 247.4829126 74.03097351 248.08691895 73.45053101 248.70922852 C72 250 72 250 70 250 C69.78063782 250.54500656 69.56127563 251.09001312 69.33526611 251.65153503 C67.56365954 254.76743525 65.17028646 257.08390006 62.63574219 259.57543945 C62.08913437 260.12073303 61.54252655 260.66602661 60.97935486 261.22784424 C59.17308211 263.02763229 57.35993868 264.82033669 55.546875 266.61328125 C54.28564395 267.86823744 53.02492964 269.12371314 51.76470947 270.37968445 C48.44381347 273.68727786 45.11740513 276.9892668 41.78936768 280.28967285 C36.47597193 285.55997369 31.16917317 290.83689401 25.8657608 296.117239 C24.01925613 297.95359189 22.1693348 299.78644925 20.31903076 301.61897278 C14.99066536 306.90968982 9.79838822 312.21527643 5 318 C1.51612903 321 1.51612903 321 -1 321 C-0.67 215.07 -0.34 109.14 0 0 Z " fill="#FC971D" transform="translate(320,249)"/>
<path d="M0 0 C0.33 0.66 0.66 1.32 1 2 C34.33 2 67.66 2 102 2 C102 2.33 102 2.66 102 3 C66.36 3 30.72 3 -6 3 C-5.99476318 12.6529834 -5.98952637 22.3059668 -5.98413086 32.25146484 C-5.96809506 63.10564672 -5.95696363 93.95982861 -5.94893467 124.81401356 C-5.9476839 129.60322259 -5.94638959 134.39243161 -5.94506836 139.18164062 C-5.94467489 140.61186286 -5.94467489 140.61186286 -5.94427348 142.07097848 C-5.93991722 157.52786081 -5.93202991 172.98473943 -5.9228472 188.44161956 C-5.91350945 204.29118291 -5.90794413 220.14074432 -5.90591151 235.99031031 C-5.90453653 245.77741567 -5.90018731 255.56451056 -5.89208353 265.3516127 C-5.88681458 272.05479652 -5.88519605 278.7579749 -5.88649862 285.46116064 C-5.88714177 289.33372516 -5.88612713 293.20627134 -5.88079453 297.07883263 C-5.87506655 301.26890637 -5.87700077 305.4589406 -5.87974548 309.64901733 C-5.87683264 310.88440416 -5.8739198 312.11979098 -5.87091869 313.39261377 C-5.87290974 314.50779905 -5.87490079 315.62298434 -5.87695217 316.77196312 C-5.87657245 317.74024996 -5.87619273 318.7085368 -5.8758015 319.70616567 C-6 322 -6 322 -7 324 C-6.38125 323.505 -5.7625 323.01 -5.125 322.5 C-3 321 -3 321 -1 321 C-0.731875 320.360625 -0.46375 319.72125 -0.1875 319.0625 C1 317 1 317 4 316 C4.67605608 314.67140284 5.34082384 313.33705236 6 312 C7.49377563 310.37140707 9.03988064 308.78983024 10.625 307.25 C11.44226563 306.45078125 12.25953125 305.6515625 13.1015625 304.828125 C13.72804688 304.22484375 14.35453125 303.6215625 15 303 C15.625 304.875 15.625 304.875 16 307 C14 309 14 309 11 311 C10.525625 311.99 10.05125 312.98 9.5625 314 C7.84206504 317.30323513 7.3071448 317.67714208 4 319 C0.17703165 321.34059287 -2.40695482 323.36973675 -5 327 C-5.66 327 -6.32 327 -7 327 C-8.4828477 324.0343046 -8.1537513 321.01432614 -8.15821838 317.76179504 C-8.16562588 316.62732494 -8.16562588 316.62732494 -8.17318302 315.46993625 C-8.18862608 312.91591355 -8.19694292 310.36191629 -8.20532227 307.80786133 C-8.21489997 305.97585996 -8.22490457 304.14386079 -8.23530388 302.3118639 C-8.26250558 297.29137353 -8.28345605 292.27087368 -8.30329776 287.25034952 C-8.32534764 281.92090115 -8.35287892 276.59148078 -8.37965393 271.26205444 C-8.43026667 260.99044301 -8.47523356 250.71881439 -8.51790267 240.44716716 C-8.55217307 232.20684582 -8.58832022 223.96653473 -8.62567139 215.72622681 C-8.86531532 162.69275323 -9.09810933 109.65890088 -9.12293625 56.62481308 C-9.12499697 53.19255084 -9.12874522 49.7602938 -9.13284302 46.32803345 C-9.13857188 41.0910205 -9.13895726 35.85403736 -9.13438225 30.61702347 C-9.13335776 28.77391199 -9.13387323 26.93079882 -9.13614082 25.08768845 C-9.13867137 22.64070156 -9.13495223 20.19380614 -9.12939453 17.74682617 C-9.13142159 17.05407498 -9.13344866 16.3613238 -9.13553715 15.64758015 C-9.11672362 11.32652937 -8.69357331 7.25216502 -8 3 C-5.36 2.01 -2.72 1.02 0 0 Z " fill="#4D3832" transform="translate(326,246)"/>
<path d="M0 0 C5.67667886 -0.56349386 10.69248923 -0.81695455 15.6875 2.25 C18.20363127 4.41480288 18.91837477 5.62432114 19.62890625 8.89453125 C19.80886366 13.60244937 19.60740208 16.93704637 17.25 21.0625 C16.5075 21.701875 15.765 22.34125 15 23 C14.12794922 23.80050781 14.12794922 23.80050781 13.23828125 24.6171875 C10.29456255 26.43582 8.36387925 26.23657875 4.9375 26.0625 C0.16468455 25.7547566 0.16468455 25.7547566 -4 28 C-4.33 27.01 -4.66 26.02 -5 25 C-4.34 24.34 -3.68 23.68 -3 23 C-2.77948459 19.76577402 -3.00070403 16.99640943 -3.625 13.8125 C-4 11 -4 11 -2 8 C-1.34 8 -0.68 8 0 8 C0 7.01 0 6.02 0 5 C0.66 5 1.32 5 2 5 C2 3.68 2 2.36 2 1 C1.34 0.67 0.68 0.34 0 0 Z " fill="#FA9512" transform="translate(427,439)"/>
<path d="M0 0 C0 0.66 0 1.32 0 2 C0.639375 2.309375 1.27875 2.61875 1.9375 2.9375 C4 4 4 4 5 5 C5.50210557 8.07619109 5.54230742 10.92866276 5 14 C2.4375 17.0625 2.4375 17.0625 -1 19 C-2.11375 18.979375 -3.2275 18.95875 -4.375 18.9375 C-12.51365446 19.07782163 -19.24694668 27.88584799 -24.8125 33.25 C-26.29629906 34.6738347 -27.78190001 36.09579465 -29.26953125 37.515625 C-30.23789917 38.44810059 -30.23789917 38.44810059 -31.22583008 39.39941406 C-34.39155986 42.25541027 -35.61991465 43 -40 43 C-39.55484589 38.61927883 -36.95113 36.84882389 -33.75 34.0625 C-32.6638862 33.08627771 -31.57930925 32.10834349 -30.49609375 31.12890625 C-28.72973424 29.54373748 -26.95935582 27.96429624 -25.17626953 26.39794922 C-17.65970315 20.16543545 -17.65970315 20.16543545 -13.1015625 11.87109375 C-12.90185081 8.9810549 -12.90185081 8.9810549 -12.99609375 6.2578125 C-13 4 -13 4 -11.5 1.3125 C-7.73589748 -0.66365382 -4.16514762 -0.32039597 0 0 Z " fill="#F1981A" transform="translate(488,551)"/>
<path d="M0 0 C-0.51066517 4.15812882 -1.56378302 6.04430596 -4.57006836 8.92895508 C-5.32432602 9.66354446 -6.07858368 10.39813385 -6.85569763 11.15498352 C-8.08534996 12.32543465 -8.08534996 12.32543465 -9.33984375 13.51953125 C-11.05948461 15.19832209 -12.77887796 16.87736649 -14.49804688 18.55664062 C-17.21660869 21.18827525 -19.93988486 23.81479063 -22.66870117 26.43579102 C-25.30122557 28.9715472 -27.91490184 31.52561362 -30.52734375 34.08203125 C-31.34508774 34.85625931 -32.16283173 35.63048737 -33.00535583 36.42817688 C-37.82394908 41.16174951 -39.96316222 44.30476782 -41 51 C-42.65424485 53.52075406 -43.45281739 53.87040412 -46.375 54.5625 C-50.45290801 53.68866257 -51.76292538 51.38757013 -54 48 C-54.5 45.3125 -54.5 45.3125 -54 43 C-52.76171875 41.3359375 -52.76171875 41.3359375 -51 40 C-48.73828125 39.92578125 -48.73828125 39.92578125 -46.3125 40.3125 C-45.50425781 40.43238281 -44.69601562 40.55226563 -43.86328125 40.67578125 C-43.24839844 40.78277344 -42.63351562 40.88976562 -42 41 C-41.74259033 40.41661865 -41.48518066 39.8332373 -41.2199707 39.23217773 C-39.89466755 36.80727345 -38.44772789 35.21960671 -36.48046875 33.28515625 C-35.78759766 32.59873047 -35.09472656 31.91230469 -34.38085938 31.20507812 C-33.65705078 30.49802734 -32.93324219 29.79097656 -32.1875 29.0625 C-31.47529297 28.35931641 -30.76308594 27.65613281 -30.02929688 26.93164062 C-28.63749983 25.55786871 -27.24398303 24.18583662 -25.84863281 22.81567383 C-22.22609658 19.25772323 -18.65819459 15.65053673 -15.1171875 12.01171875 C-13.70327772 10.57016269 -12.2892119 9.12875967 -10.875 7.6875 C-10.15957031 6.94693359 -9.44414063 6.20636719 -8.70703125 5.44335938 C-8.01738281 4.74404297 -7.32773437 4.04472656 -6.6171875 3.32421875 C-5.99440918 2.68572998 -5.37163086 2.04724121 -4.72998047 1.3894043 C-3 0 -3 0 0 0 Z " fill="#D58645" transform="translate(556,488)"/>
<path d="M0 0 C0.33 0.99 0.66 1.98 1 3 C3.75641416 2.50243908 3.75641416 2.50243908 6 1 C7.51928038 0.92820036 9.04167482 0.91607993 10.5625 0.9375 C11.38878906 0.94652344 12.21507812 0.95554687 13.06640625 0.96484375 C13.70449219 0.97644531 14.34257812 0.98804688 15 1 C14.67 1.66 14.34 2.32 14 3 C12.515 2.814375 12.515 2.814375 11 2.625 C2.78008965 2.65577465 -4.3082377 11.94492106 -9.8125 17.25 C-11.29629906 18.6738347 -12.78190001 20.09579465 -14.26953125 21.515625 C-15.23789917 22.44810059 -15.23789917 22.44810059 -16.22583008 23.39941406 C-19.39155986 26.25541027 -20.61991465 27 -25 27 C-24.56165656 22.5961775 -21.89849862 20.79869141 -18.6875 18 C-17.60065059 17.03765089 -16.51608896 16.07271307 -15.43359375 15.10546875 C-14.87140137 14.60321777 -14.30920898 14.1009668 -13.72998047 13.58349609 C-10.8148955 10.91524305 -8.03149112 8.1187771 -5.25 5.3125 C-4.72494873 4.78333984 -4.19989746 4.25417969 -3.65893555 3.70898438 C-2.43718556 2.47473619 -1.21825638 1.23769665 0 0 Z " fill="#E79941" transform="translate(473,567)"/>
<path d="M0 0 C1.08667969 0.11988281 2.17335938 0.23976563 3.29296875 0.36328125 C4.12441406 0.47027344 4.95585938 0.57726562 5.8125 0.6875 C5.55629316 2.2940676 5.28194129 3.8977483 5 5.5 C4.84917969 6.39332031 4.69835937 7.28664063 4.54296875 8.20703125 C3.74787981 10.9069322 3.02212696 11.98778696 0.8125 13.6875 C-1.5625 14.25 -1.5625 14.25 -4.1875 13.6875 C-7.08089566 10.92269971 -8.94562077 8.98760084 -9.6875 5 C-8.46315874 -0.66257832 -5.17850674 -0.61251155 0 0 Z " fill="#E79A2F" transform="translate(511.1875,528.3125)"/>
<path d="M0 0 C0 1.32 0 2.64 0 4 C-0.66 4 -1.32 4 -2 4 C-2 4.99 -2 5.98 -2 7 C-4 9 -4 9 -6 10 C-5.67 11.216875 -5.34 12.43375 -5 13.6875 C-4.19677787 16.87210604 -3.79358027 19.6972843 -4 23 C-4.99 23.33 -5.98 23.66 -7 24 C-6.67 24.99 -6.34 25.98 -6 27 C-7.32 27 -8.64 27 -10 27 C-9.32829194 23.1936543 -8.27253436 19.64793184 -7 16 C-7.66 16 -8.32 16 -9 16 C-9.85986619 6.33128237 -9.85986619 6.33128237 -6.75 2.375 C-4 0 -4 0 0 0 Z " fill="#FBA119" transform="translate(429,440)"/>
<path d="M0 0 C0.33 0.66 0.66 1.32 1 2 C-3.39601922 8.6568291 -3.39601922 8.6568291 -6.75 10.5625 C-9.3520809 11.86395347 -9.3520809 11.86395347 -9.8125 15.1875 C-9.9053125 16.5796875 -9.9053125 16.5796875 -10 18 C-11.98 18.33 -13.96 18.66 -16 19 C-15.67 20.65 -15.34 22.3 -15 24 C-15.928125 24.268125 -16.85625 24.53625 -17.8125 24.8125 C-20.76240366 25.91148371 -22.05615186 26.62418561 -24 29 C-23.34 29.33 -22.68 29.66 -22 30 C-23.65 30 -25.3 30 -27 30 C-26.13835307 25.43163037 -23.44739226 23.0656085 -20.21484375 19.921875 C-19.63916153 19.35043762 -19.06347931 18.77900024 -18.47035217 18.19024658 C-16.63299681 16.36966198 -14.78547868 14.55979432 -12.9375 12.75 C-11.68876862 11.51631747 -10.44071331 10.28195022 -9.19335938 9.046875 C-6.1366898 6.02325345 -3.07086474 3.00920079 0 0 Z " fill="#26262F" transform="translate(381,509)"/>
<path d="M0 0 C0 0.66 0 1.32 0 2 C0.66 2.33 1.32 2.66 2 3 C-4.6 9.6 -11.2 16.2 -18 23 C-18.33 22.01 -18.66 21.02 -19 20 C-18.01 19.67 -17.02 19.34 -16 19 C-16.33 18.01 -16.66 17.02 -17 16 C-15.68 16 -14.36 16 -13 16 C-13 15.34 -13 14.68 -13 14 C-13.66 14 -14.32 14 -15 14 C-14.67 13.01 -14.34 12.02 -14 11 C-14 11.66 -14 12.32 -14 13 C-13.34 12.67 -12.68 12.34 -12 12 C-11.67 11.01 -11.34 10.02 -11 9 C-10.01 8.67 -9.02 8.34 -8 8 C-8.66 8 -9.32 8 -10 8 C-9.34 6.35 -8.68 4.7 -8 3 C-7.67 3.66 -7.34 4.32 -7 5 C-6.34 5 -5.68 5 -5 5 C-5 4.01 -5 3.02 -5 2 C-2 0 -2 0 0 0 Z " fill="#18273F" transform="translate(374,549)"/>
<path d="M0 0 C0.33 0 0.66 0 1 0 C1.13904915 10.47456314 1.24564586 20.94890657 1.31087303 31.42420483 C1.34217994 36.28842465 1.38464074 41.15201285 1.45263672 46.01586914 C1.51785262 50.71026625 1.55371087 55.40405607 1.56926346 60.09887123 C1.58034587 61.88950474 1.60198801 63.68010517 1.63438034 65.47047997 C1.67797591 67.97999112 1.68393319 70.48699698 1.68115234 72.99682617 C1.702724 73.73625961 1.72429565 74.47569305 1.746521 75.23753357 C1.71171242 78.14283827 1.55549831 80.35469948 -0.38154221 82.60488319 C-2.04257202 84.00019836 -2.04257202 84.00019836 -5 86 C-4.67 84.68 -4.34 83.36 -4 82 C-3.34 82 -2.68 82 -2 82 C-2 81.34 -2 80.68 -2 80 C-1.34 80 -0.68 80 0 80 C-0.07359238 79.09914169 -0.14718475 78.19828339 -0.2230072 77.27012634 C-0.9245707 67.9264171 -1.06830828 58.68874769 -0.87890625 49.31640625 C-0.85451179 47.88053792 -0.83067352 46.44466005 -0.80735779 45.0087738 C-0.74544172 41.28523623 -0.67612933 37.56187441 -0.60510254 33.83850098 C-0.53356664 30.01676224 -0.46926555 26.19490189 -0.40429688 22.37304688 C-0.27648251 14.91522982 -0.14082888 7.45758388 0 0 Z " fill="#F99F2A" transform="translate(428,339)"/>
<path d="M0 0 C0.625 1.875 0.625 1.875 1 4 C-1 6 -1 6 -4 8 C-4.474375 8.99 -4.94875 9.98 -5.4375 11 C-7.15793496 14.30323513 -7.6928552 14.67714208 -11 16 C-14.82296835 18.34059287 -17.40695482 20.36973675 -20 24 C-20.66 24 -21.32 24 -22 24 C-22.33 22.35 -22.66 20.7 -23 19 C-22.67 19.66 -22.34 20.32 -22 21 C-21.38125 20.505 -20.7625 20.01 -20.125 19.5 C-18 18 -18 18 -16 18 C-15.731875 17.360625 -15.46375 16.72125 -15.1875 16.0625 C-14 14 -14 14 -11 13 C-10.32394392 11.67140284 -9.65917616 10.33705236 -9 9 C-7.50622437 7.37140707 -5.96011936 5.78983024 -4.375 4.25 C-3.55773437 3.45078125 -2.74046875 2.6515625 -1.8984375 1.828125 C-0.95871094 0.92320312 -0.95871094 0.92320312 0 0 Z " fill="#2E2F3A" transform="translate(341,549)"/>
<path d="M0 0 C-1.58956284 3.81316478 -4.00760697 6.372784 -6.875 9.3125 C-7.73867188 10.21613281 -8.60234375 11.11976563 -9.4921875 12.05078125 C-12 14 -12 14 -14.3203125 13.79296875 C-14.87460937 13.53128906 -15.42890625 13.26960937 -16 13 C-14.5384164 9.63002746 -12.6619112 7.39254873 -10.0625 4.8125 C-9.37285156 4.11769531 -8.68320312 3.42289063 -7.97265625 2.70703125 C-5.30617687 0.39960256 -3.5074906 0 0 0 Z " fill="#D78A40" transform="translate(530,516)"/>
<path d="M0 0 C0 0.66 0 1.32 0 2 C0.66 2.33 1.32 2.66 2 3 C-0.64 3.33 -3.28 3.66 -6 4 C-5.67 4.99 -5.34 5.98 -5 7 C-8 8 -8 8 -10 8 C-11.96822886 9.96822886 -11.66248381 13.34808709 -12 16 C-12.66 15.67 -13.32 15.34 -14 15 C-13.66156202 5.18529862 -13.66156202 5.18529862 -11.5 1.3125 C-7.73589748 -0.66365382 -4.16514762 -0.32039597 0 0 Z " fill="#E58E21" transform="translate(488,551)"/>
<path d="M0 0 C0.66 0.99 1.32 1.98 2 3 C0.57074 6.33002846 -1.16642265 8.35827509 -3.875 10.75 C-4.55304688 11.36359375 -5.23109375 11.9771875 -5.9296875 12.609375 C-8 14 -8 14 -12 14 C-11.59773543 9.58540416 -8.59612875 7.46302944 -5.4375 4.75 C-4.91736328 4.29109375 -4.39722656 3.8321875 -3.86132812 3.359375 C-2.58104445 2.2317857 -1.29141202 1.11482685 0 0 Z " fill="#DD914A" transform="translate(460,580)"/>
<path d="M0 0 C3.3 0 6.6 0 10 0 C9.34 3.3 8.68 6.6 8 10 C6.68 10.33 5.36 10.66 4 11 C3.566875 9.2984375 3.566875 9.2984375 3.125 7.5625 C2.75375 6.386875 2.3825 5.21125 2 4 C1.34 3.67 0.68 3.34 0 3 C0 2.01 0 1.02 0 0 Z " fill="#EDA436" transform="translate(507,529)"/>
<path d="M0 0 C0.625 1.8125 0.625 1.8125 1 4 C0.01 5.485 0.01 5.485 -1 7 C-0.2236068 10.0745356 -0.2236068 10.0745356 2 12 C-0.97 14.97 -3.94 17.94 -7 21 C-7.33 20.01 -7.66 19.02 -8 18 C-7.34 18 -6.68 18 -6 18 C-5.67 16.02 -5.34 14.04 -5 12 C-6.32 11.67 -7.64 11.34 -9 11 C-8.43410156 10.45730469 -7.86820312 9.91460937 -7.28515625 9.35546875 C-6.55167969 8.64003906 -5.81820313 7.92460937 -5.0625 7.1875 C-3.96615234 6.12595703 -3.96615234 6.12595703 -2.84765625 5.04296875 C-0.79165354 3.04463837 -0.79165354 3.04463837 0 0 Z " fill="#E8881C" transform="translate(421,456)"/>
<path d="M0 0 C0.99 0.66 1.98 1.32 3 2 C-3.6 8.6 -10.2 15.2 -17 22 C-17.33 20.68 -17.66 19.36 -18 18 C-17.34 18 -16.68 18 -16 18 C-15.67 16.68 -15.34 15.36 -15 14 C-14.67 14.33 -14.34 14.66 -14 15 C-13.54625 14.505 -13.0925 14.01 -12.625 13.5 C-11 12 -11 12 -9 12 C-8.34 10.35 -7.68 8.7 -7 7 C-6.01 7 -5.02 7 -4 7 C-4 5.35 -4 3.7 -4 2 C-3.01 2 -2.02 2 -1 2 C-0.67 1.34 -0.34 0.68 0 0 Z " fill="#322A32" transform="translate(394,529)"/>
<path d="M0 0 C0.33 0.66 0.66 1.32 1 2 C-5.47251453 9.83514917 -12.77773464 16.86788775 -20 24 C-20.99 23.67 -21.98 23.34 -23 23 C-15.41 15.41 -7.82 7.82 0 0 Z " fill="#453D3D" transform="translate(488,522)"/>
<path d="M0 0 C0.33 0.66 0.66 1.32 1 2 C-0.61594832 4.04119788 -2.2856382 6.04072937 -4 8 C-4.66 8 -5.32 8 -6 8 C-6.22042969 8.54398438 -6.44085937 9.08796875 -6.66796875 9.6484375 C-8.4322736 12.76313403 -10.79378778 15.1230123 -13.3125 17.625 C-13.78623047 18.11484375 -14.25996094 18.6046875 -14.74804688 19.109375 C-17.62355364 21.98881543 -20.10378552 23.79352193 -24 25 C-19.18132753 19.19108254 -13.98743592 13.86934448 -8.625 8.5625 C-7.79355469 7.73556641 -6.96210937 6.90863281 -6.10546875 6.05664062 C-4.0725896 4.03544469 -2.03740037 2.01663665 0 0 Z " fill="#433C37" transform="translate(541,506)"/>
<path d="M0 0 C0.33 0 0.66 0 1 0 C1.06701784 4.22212373 0.98083309 7.69850994 -1.625 11.15625 C-3.35800598 12.86130427 -5.11314483 14.4678539 -7 16 C-7.33 15.01 -7.66 14.02 -8 13 C-7.34 13 -6.68 13 -6 13 C-6 12.01 -6 11.02 -6 10 C-6.99 10 -7.98 10 -9 10 C-9 9.34 -9 8.68 -9 8 C-8.443125 7.79375 -7.88625 7.5875 -7.3125 7.375 C-4.09117285 5.45961629 -2.34567425 2.91624366 0 0 Z " fill="#F9A423" transform="translate(379,503)"/>
<path d="M0 0 C0.33 0.99 0.66 1.98 1 3 C-0.61886415 4.67262717 -2.2452729 6.33795537 -3.875 8 C-5.23238281 9.3921875 -5.23238281 9.3921875 -6.6171875 10.8125 C-9 13 -9 13 -11 13 C-11.2475 13.5775 -11.495 14.155 -11.75 14.75 C-13.16683317 17.3002997 -14.87627537 19.01785701 -17 21 C-17.99 20.67 -18.98 20.34 -20 20 C-13.4 13.4 -6.8 6.8 0 0 Z " fill="#464243" transform="translate(464,546)"/>
<path d="M0 0 C0.33 0 0.66 0 1 0 C1.66 2.31 2.32 4.62 3 7 C4.65 6.67 6.3 6.34 8 6 C8 5.34 8 4.68 8 4 C8.99 4.33 9.98 4.66 11 5 C4.5546875 12.84179688 4.5546875 12.84179688 1 15 C0.34 15 -0.32 15 -1 15 C-0.67 10.05 -0.34 5.1 0 0 Z " fill="#EE992F" transform="translate(320,555)"/>
<path d="M0 0 C0 3.16785869 -0.55555175 4.28103859 -2 7 C-2.33 7.99 -2.66 8.98 -3 10 C-4.32 9.67 -5.64 9.34 -7 9 C-7.66 11.31 -8.32 13.62 -9 16 C-10.98 16 -12.96 16 -15 16 C-11.49169027 11.81655163 -7.91593271 7.81288185 -4 4 C-3.236875 3.236875 -2.47375 2.47375 -1.6875 1.6875 C-1.130625 1.130625 -0.57375 0.57375 0 0 Z " fill="#2B292D" transform="translate(397,493)"/>
<path d="M0 0 C1.32 0.33 2.64 0.66 4 1 C2.46356148 4.68069887 0.21849055 6.98775204 -2.625 9.75 C-3.85089844 10.94882812 -3.85089844 10.94882812 -5.1015625 12.171875 C-5.72804688 12.77515625 -6.35453125 13.3784375 -7 14 C-7.33 13.01 -7.66 12.02 -8 11 C-7.01 10.67 -6.02 10.34 -5 10 C-5.33 9.01 -5.66 8.02 -6 7 C-4.68 7 -3.36 7 -2 7 C-2 6.34 -2 5.68 -2 5 C-2.66 5 -3.32 5 -4 5 C-3.67 4.01 -3.34 3.02 -3 2 C-3 2.66 -3 3.32 -3 4 C-2.34 3.67 -1.68 3.34 -1 3 C-0.67 2.01 -0.34 1.02 0 0 Z " fill="#1B1923" transform="translate(363,558)"/>
<path d="M0 0 C0.33 0.99 0.66 1.98 1 3 C3.75641416 2.50243908 3.75641416 2.50243908 6 1 C7.51928038 0.92820036 9.04167482 0.91607993 10.5625 0.9375 C11.38878906 0.94652344 12.21507812 0.95554687 13.06640625 0.96484375 C13.70449219 0.97644531 14.34257812 0.98804688 15 1 C14.67 1.66 14.34 2.32 14 3 C12.948125 2.938125 11.89625 2.87625 10.8125 2.8125 C6.84183507 3.0077786 5.15803031 3.70325068 2 6 C1.67 5.34 1.34 4.68 1 4 C0.34 4 -0.32 4 -1 4 C-1 4.66 -1 5.32 -1 6 C-3.375 7.6875 -3.375 7.6875 -6 9 C-6.66 8.67 -7.32 8.34 -8 8 C-5.36 5.36 -2.72 2.72 0 0 Z " fill="#B97432" transform="translate(473,567)"/>
<path d="M0 0 C0.33 0.66 0.66 1.32 1 2 C-0.2387262 5.41524512 -2.16550508 7.22871925 -4.9375 9.5 C-7.11710517 11.29257248 -8.90242662 12.86829997 -10.5859375 15.140625 C-12.40078113 17.52699398 -14.1933775 18.08974406 -17 19 C-11.52509066 12.489297 -5.76776422 6.25012173 0 0 Z " fill="#F48F23" transform="translate(403,523)"/>
<path d="M0 0 C1 4 1 4 -0.0625 6 C-2.49749763 8.51354594 -4.95090748 10.28488545 -8 12 C-8.99 11.67 -9.98 11.34 -11 11 C-7.37 7.37 -3.74 3.74 0 0 Z " fill="#DD8526" transform="translate(421,505)"/>
<path d="M0 0 C0.99 0.33 1.98 0.66 3 1 C-1.62 5.62 -6.24 10.24 -11 15 C-11.33 13.68 -11.66 12.36 -12 11 C-10.68 10.67 -9.36 10.34 -8 10 C-8 9.34 -8 8.68 -8 8 C-7.34 8 -6.68 8 -6 8 C-6 7.34 -6 6.68 -6 6 C-5.34 6 -4.68 6 -4 6 C-4 5.01 -4 4.02 -4 3 C-3.34 3 -2.68 3 -2 3 C-2 2.34 -2 1.68 -2 1 C-1.34 0.67 -0.68 0.34 0 0 Z " fill="#EA962C" transform="translate(353,534)"/>
<path d="M0 0 C0.33 0.66 0.66 1.32 1 2 C-2.04263509 6.60741884 -4.12659445 9.29255247 -9 12 C-9.33 12.99 -9.66 13.98 -10 15 C-10.99 15 -11.98 15 -13 15 C-11.38989473 10.92623969 -8.46177729 8.23492931 -5.375 5.25 C-4.859375 4.74339844 -4.34375 4.23679687 -3.8125 3.71484375 C-2.54616661 2.47196098 -1.2736856 1.23534724 0 0 Z " fill="#252224" transform="translate(381,509)"/>
<path d="M0 0 C2.125 0.375 2.125 0.375 4 1 C3.01 1 2.02 1 1 1 C1.33 1.99 1.66 2.98 2 4 C1.1646875 4.0928125 1.1646875 4.0928125 0.3125 4.1875 C-2.99908299 5.35102916 -4.61498695 7.44462887 -7 10 C-8.10025815 11.1080614 -9.20442942 12.2122511 -10.3125 13.3125 C-11.199375 14.199375 -12.08625 15.08625 -13 16 C-13.66 15.67 -14.32 15.34 -15 15 C-13.54782324 13.49403892 -12.08807139 11.99537896 -10.625 10.5 C-9.81289063 9.6646875 -9.00078125 8.829375 -8.1640625 7.96875 C-6 6 -6 6 -4 6 C-3.566875 5.071875 -3.566875 5.071875 -3.125 4.125 C-2 2 -2 2 0 0 Z " fill="#BC6714" transform="translate(392,477)"/>
<path d="M0 0 C-1.48781815 3.78717347 -3.61988409 5.77407001 -7 8 C-7.99 7.67 -8.98 7.34 -10 7 C-8.2054392 2.26888516 -5.07937287 0 0 0 Z " fill="#E6993D" transform="translate(524,522)"/>
<path d="M0 0 C0.5534764 2.07553648 1 3.84365964 1 6 C-0.390625 7.25390625 -0.390625 7.25390625 -2.25 8.5625 C-2.85328125 8.99691406 -3.4565625 9.43132812 -4.078125 9.87890625 C-6.05581272 11.03255742 -7.76401078 11.55972779 -10 12 C-9.61328125 11.55269531 -9.2265625 11.10539062 -8.828125 10.64453125 C-5.81609925 7.1478974 -2.85678969 3.62592537 0 0 Z " fill="#E88B26" transform="translate(435,491)"/>
<path d="M0 0 C0 4.02450677 -1.1034499 6.45977315 -3 10 C-6.1875 11.9375 -6.1875 11.9375 -9 13 C-6.76869284 8.16550114 -3.9810131 3.58291179 0 0 Z " fill="#212B3C" transform="translate(403,487)"/>
<path d="M0 0 C2.31 0 4.62 0 7 0 C6.8125 1.8125 6.8125 1.8125 6 4 C3.4375 5.75 3.4375 5.75 1 7 C0.67 4.69 0.34 2.38 0 0 Z " fill="#ED922C" transform="translate(511,491)"/>
<path d="M0 0 C0 3 0 3 -1 5 C-0.01 5.33 0.98 5.66 2 6 C0.73581754 6.69965443 -0.53665402 7.38434763 -1.8125 8.0625 C-2.52019531 8.44535156 -3.22789062 8.82820313 -3.95703125 9.22265625 C-6 10 -6 10 -9 9 C-6.03 6.03 -3.06 3.06 0 0 Z " fill="#282429" transform="translate(423,467)"/>
<path d="M0 0 C0.66 0 1.32 0 2 0 C2 0.99 2 1.98 2 3 C1.01 3 0.02 3 -1 3 C-1 3.66 -1 4.32 -1 5 C-3.66902415 5.98852746 -4.69713089 6.12752384 -7.375 5 C-10.62980993 3.76007241 -12.65722362 4.22261014 -16 5 C-15.34 4.01 -14.68 3.02 -14 2 C-11.25 1.77734375 -11.25 1.77734375 -8 1.9375 C-4.83389738 2.12902249 -4.83389738 2.12902249 -2 2 C-1.34 1.34 -0.68 0.68 0 0 Z " fill="#392E31" transform="translate(440,462)"/>
<path d="M0 0 C1.32 0.66 2.64 1.32 4 2 C4 2.66 4 3.32 4 4 C2.02 4.33 0.04 4.66 -2 5 C-1.67 6.65 -1.34 8.3 -1 10 C-2.32 10.33 -3.64 10.66 -5 11 C-5.3125 8.3125 -5.3125 8.3125 -5 5 C-2.5 2.125 -2.5 2.125 0 0 Z " fill="#1F2A3D" transform="translate(367,523)"/>
<path d="M0 0 C0.5775 0.226875 1.155 0.45375 1.75 0.6875 C1.1725 0.935 0.595 1.1825 0 1.4375 C-4.84759363 4.13060757 -6.99085582 7.7173828 -9.25 12.6875 C-10 11.0625 -10 11.0625 -10.25 8.6875 C-5.07464455 -0.70481174 -5.07464455 -0.70481174 0 0 Z " fill="#4D3F34" transform="translate(364.25,490.3125)"/>
<path d="M0 0 C0.99 0.33 1.98 0.66 3 1 C-0.3 4.3 -3.6 7.6 -7 11 C-7.33 10.01 -7.66 9.02 -8 8 C-7.01 7.67 -6.02 7.34 -5 7 C-5 5.68 -5 4.36 -5 3 C-4.01 3 -3.02 3 -2 3 C-2 2.34 -2 1.68 -2 1 C-1.34 0.67 -0.68 0.34 0 0 Z " fill="#E99630" transform="translate(365,522)"/>
<path d="M0 0 C-0.30618405 3.67420866 -0.75771784 4.78135513 -3.5625 7.3125 C-4.366875 7.869375 -5.17125 8.42625 -6 9 C-6.75 6.75 -6.75 6.75 -7 4 C-4.69139139 0.94933862 -3.89789797 0 0 0 Z " fill="#C67D39" transform="translate(556,488)"/>
<path d="M0 0 C0.99 0 1.98 0 3 0 C3 0.66 3 1.32 3 2 C1.66666667 3.33333333 0.33333333 4.66666667 -1 6 C-1.33 6.99 -1.66 7.98 -2 9 C-3.65 8.67 -5.3 8.34 -7 8 C-6.02133662 6.85373678 -5.04205413 5.70800212 -4.0625 4.5625 C-3.51722656 3.92441406 -2.97195313 3.28632812 -2.41015625 2.62890625 C-1.63204305 1.73008851 -0.84063472 0.84063472 0 0 Z " fill="#21252F" transform="translate(439,572)"/>
<path d="M0 0 C0.66 0 1.32 0 2 0 C2.33 2.97 2.66 5.94 3 9 C2.01 9.66 1.02 10.32 0 11 C-0.66 10.67 -1.32 10.34 -2 10 C-2 9.01 -2 8.02 -2 7 C-1.34 7 -0.68 7 0 7 C0 4.69 0 2.38 0 0 Z " fill="#F6A237" transform="translate(476,560)"/>
<path d="M0 0 C0 2.31 0 4.62 0 7 C-0.66 7 -1.32 7 -2 7 C-2 6.01 -2 5.02 -2 4 C-2.9590625 3.566875 -2.9590625 3.566875 -3.9375 3.125 C-6 2 -6 2 -7 0 C-4.3333581 -1.33332095 -2.83319697 -0.67102033 0 0 Z " fill="#F79925" transform="translate(510,533)"/>
<path d="M0 0 C0.66 0.33 1.32 0.66 2 1 C1.34 2.98 0.68 4.96 0 7 C-0.99 6.67 -1.98 6.34 -3 6 C-3.33 9.3 -3.66 12.6 -4 16 C-4.33 16 -4.66 16 -5 16 C-5.76681614 7.37757848 -5.76681614 7.37757848 -3.88671875 4 C-2.5 2.375 -2.5 2.375 0 0 Z " fill="#D2831D" transform="translate(425,440)"/>
<path d="M0 0 C0 0.99 0 1.98 0 3 C0.66 3.66 1.32 4.32 2 5 C1.2575 5.268125 0.515 5.53625 -0.25 5.8125 C-2.86636554 6.94229421 -4.80187111 8.20893202 -7 10 C-7.66 9.67 -8.32 9.34 -9 9 C-8.06725891 7.87105124 -7.12859878 6.74699124 -6.1875 5.625 C-5.66542969 4.99851562 -5.14335937 4.37203125 -4.60546875 3.7265625 C-3 2 -3 2 0 0 Z " fill="#E68423" transform="translate(340,587)"/>
<path d="M0 0 C2.97 0 5.94 0 9 0 C8.67 0.66 8.34 1.32 8 2 C8.99 2.99 9.98 3.98 11 5 C10.01 5.495 10.01 5.495 9 6 C9 5.34 9 4.68 9 4 C6.36 4 3.72 4 1 4 C0.67 2.68 0.34 1.36 0 0 Z " fill="#312727" transform="translate(479,547)"/>
<path d="M0 0 C1.98 0.495 1.98 0.495 4 1 C3.41196203 4.02419525 2.77321882 7.01758453 2 10 C1.34 10 0.68 10 0 10 C-0.95024979 6.30458414 -0.95024979 3.69541586 0 0 Z " fill="#FAB83D" transform="translate(511,530)"/>
<path d="M0 0 C0.99 0.33 1.98 0.66 3 1 C-0.63 4.63 -4.26 8.26 -8 12 C-8.33 11.01 -8.66 10.02 -9 9 C-8.34 9 -7.68 9 -7 9 C-6.67 8.01 -6.34 7.02 -6 6 C-5.01 5.67 -4.02 5.34 -3 5 C-3 4.34 -3 3.68 -3 3 C-2.34 3 -1.68 3 -1 3 C-0.67 2.01 -0.34 1.02 0 0 Z " fill="#F09A2A" transform="translate(490,517)"/>
<path d="M0 0 C0 3.96130371 -1.34877125 4.82914401 -4 7.6875 C-4.7425 8.49574219 -5.485 9.30398438 -6.25 10.13671875 C-6.8275 10.75160156 -7.405 11.36648438 -8 12 C-8.99 11.67 -9.98 11.34 -11 11 C-7.37 7.37 -3.74 3.74 0 0 Z " fill="#49423F" transform="translate(476,534)"/>
<path d="M0 0 C0 0.66 0 1.32 0 2 C-1.98 2.66 -3.96 3.32 -6 4 C-5.67 3.01 -5.34 2.02 -5 1 C-2 0 -2 0 0 0 Z M-9 5 C-7 6 -7 6 -6 8 C-6.66 8 -7.32 8 -8 8 C-8 8.66 -8 9.32 -8 10 C-9.65 9.67 -11.3 9.34 -13 9 C-11.68 7.68 -10.36 6.36 -9 5 Z " fill="#182C49" transform="translate(384,513)"/>
<path d="M0 0 C0.99 0.99 1.98 1.98 3 3 C1.69593116 5.01920337 0.36176581 7.01924973 -1 9 C-1.33 9 -1.66 9 -2 9 C-2.33 6.36 -2.66 3.72 -3 1 C-2.01 0.67 -1.02 0.34 0 0 Z " fill="#1E2639" transform="translate(399,521)"/>
<path d="M0 0 C0.99 0.99 1.98 1.98 3 3 C0.36 5.64 -2.28 8.28 -5 11 C-5.66 10.01 -6.32 9.02 -7 8 C-2.25 4 -2.25 4 0 4 C0 2.68 0 1.36 0 0 Z " fill="#3C2D2D" transform="translate(352,570)"/>
<path d="M0 0 C0.33 1.32 0.66 2.64 1 4 C-1.42797311 6.42797311 -4.1299269 8.1282132 -7 10 C-7.66 9.67 -8.32 9.34 -9 9 C-6.03 6.03 -3.06 3.06 0 0 Z " fill="#393435" transform="translate(341,549)"/>
<path d="M0 0 C0.99 0.2165625 0.99 0.2165625 2 0.4375 C2 0.7675 2 1.0975 2 1.4375 C0.75283203 1.40269531 0.75283203 1.40269531 -0.51953125 1.3671875 C-1.60621094 1.34914063 -2.69289063 1.33109375 -3.8125 1.3125 C-4.89144531 1.28929687 -5.97039062 1.26609375 -7.08203125 1.2421875 C-10.19402868 1.20726283 -10.19402868 1.20726283 -13 3.4375 C-13.33 2.4475 -13.66 1.4575 -14 0.4375 C-9.45476721 -2.59265519 -5.10125677 -0.95648564 0 0 Z " fill="#D8821C" transform="translate(436,463.5625)"/>
<path d="M0 0 C0.66 0 1.32 0 2 0 C2 0.66 2 1.32 2 2 C2.66 2.33 3.32 2.66 4 3 C1.69 5.31 -0.62 7.62 -3 10 C-3.33 8.68 -3.66 7.36 -4 6 C-3.34 6 -2.68 6 -2 6 C-1.67 5.01 -1.34 4.02 -1 3 C-0.34 3.33 0.32 3.66 1 4 C0.67 2.68 0.34 1.36 0 0 Z " fill="#2A1F21" transform="translate(372,549)"/>
<path d="M0 0 C0.99 0.33 1.98 0.66 3 1 C0.03 3.475 0.03 3.475 -3 6 C-3 5.34 -3 4.68 -3 4 C-4.65 4.66 -6.3 5.32 -8 6 C-7.67 4.68 -7.34 3.36 -7 2 C-4.69 2 -2.38 2 0 2 C0 1.34 0 0.68 0 0 Z " fill="#1C273F" transform="translate(409,514)"/>
<path d="M0 0 C2.1640625 -0.29296875 2.1640625 -0.29296875 4.625 -0.1875 C5.44226563 -0.16042969 6.25953125 -0.13335938 7.1015625 -0.10546875 C8.04128906 -0.05326172 8.04128906 -0.05326172 9 0 C9 0.66 9 1.32 9 2 C9.66 2.33 10.32 2.66 11 3 C8.69 3 6.38 3 4 3 C4 2.34 4 1.68 4 1 C2.02 1.66 0.04 2.32 -2 3 C-1.34 2.01 -0.68 1.02 0 0 Z " fill="#DB8420" transform="translate(479,551)"/>
<path d="M0 0 C0.99 0.33 1.98 0.66 3 1 C2.34 2.65 1.68 4.3 1 6 C-0.98 6 -2.96 6 -5 6 C-3.35 4.02 -1.7 2.04 0 0 Z " fill="#101118" transform="translate(387,503)"/>
<path d="M0 0 C0.33 0.99 0.66 1.98 1 3 C-2.17320782 6.53586014 -4.16743695 8.58578031 -9 9 C-6 6 -3 3 0 0 Z " fill="#E1812A" transform="translate(330,597)"/>
<path d="M0 0 C0.33 0.66 0.66 1.32 1 2 C-0.98 4.31 -2.96 6.62 -5 9 C-5.99 8.67 -6.98 8.34 -8 8 C-5.36 5.36 -2.72 2.72 0 0 Z " fill="#383843" transform="translate(353,537)"/>
<path d="M0 0 C0.99 0.66 1.98 1.32 3 2 C1.37660195 3.70884005 -0.29319053 5.37446717 -2 7 C-2.66 7 -3.32 7 -4 7 C-4 5.35 -4 3.7 -4 2 C-3.01 2 -2.02 2 -1 2 C-0.67 1.34 -0.34 0.68 0 0 Z " fill="#2C2023" transform="translate(394,529)"/>
<path d="M0 0 C0.66 0 1.32 0 2 0 C1.82374165 2.37948772 1.30280227 3.70225849 -0.40234375 5.37890625 C-1.90649092 6.62115486 -3.45129851 7.81376056 -5 9 C-5 8.01 -5 7.02 -5 6 C-4.34 6 -3.68 6 -3 6 C-3 5.01 -3 4.02 -3 3 C-2.34 3 -1.68 3 -1 3 C-0.67 2.01 -0.34 1.02 0 0 Z " fill="#EA952D" transform="translate(376,510)"/>
<path d="M0 0 C0 3.99476331 -1.28869085 5.1421336 -4 8 C-6.75 9.3125 -6.75 9.3125 -9 10 C-8.06409496 8.8944811 -7.12620142 7.79064547 -6.1875 6.6875 C-5.66542969 6.07261719 -5.14335937 5.45773437 -4.60546875 4.82421875 C-3.12827531 3.14575321 -1.59960869 1.56117966 0 0 Z " fill="#302C30" transform="translate(413,477)"/>
<path d="M0 0 C0.33 0 0.66 0 1 0 C1 3.96 1 7.92 1 12 C0.34 12 -0.32 12 -1 12 C-1 12.99 -1 13.98 -1 15 C-1.99 15 -2.98 15 -4 15 C-2.125 11.125 -2.125 11.125 -1 10 C-0.76712992 8.31816052 -0.58735834 6.6287584 -0.4375 4.9375 C-0.31181641 3.55884766 -0.31181641 3.55884766 -0.18359375 2.15234375 C-0.12300781 1.44207031 -0.06242187 0.73179687 0 0 Z " fill="#5F3D29" transform="translate(446,447)"/>
<path d="M0 0 C0.598125 0.226875 1.19625 0.45375 1.8125 0.6875 C1.1525 0.6875 0.4925 0.6875 -0.1875 0.6875 C-0.1875 1.6775 -0.1875 2.6675 -0.1875 3.6875 C-0.826875 3.790625 -1.46625 3.89375 -2.125 4 C-2.805625 4.226875 -3.48625 4.45375 -4.1875 4.6875 C-4.5175 5.6775 -4.8475 6.6675 -5.1875 7.6875 C-5.41803497 4.84423536 -5.54653101 3.22604651 -3.9375 0.8125 C-2.1875 -0.3125 -2.1875 -0.3125 0 0 Z " fill="#D58221" transform="translate(507.1875,528.3125)"/>
<path d="M0 0 C1.65 0.33 3.3 0.66 5 1 C3.95125002 3.62187494 3.35068687 4.79371361 0.875 6.25 C0.25625 6.4975 -0.3625 6.745 -1 7 C-1.33 6.34 -1.66 5.68 -2 5 C-1.34 4.34 -0.68 3.68 0 3 C0 2.01 0 1.02 0 0 Z " fill="#1C2234" transform="translate(561,498)"/>
<path d="M0 0 C0.33 0.66 0.66 1.32 1 2 C-0.98 4.31 -2.96 6.62 -5 9 C-5.99 8.67 -6.98 8.34 -8 8 C-5.36 5.36 -2.72 2.72 0 0 Z " fill="#EF8C29" transform="translate(358,569)"/>
<path d="M0 0 C0.66 0 1.32 0 2 0 C0.34908222 4.29238623 -2.73754566 6.8793915 -6 10 C-6.66 9.67 -7.32 9.34 -8 9 C-6.71520959 7.49410612 -5.42195918 5.99542625 -4.125 4.5 C-3.04605469 3.24703125 -3.04605469 3.24703125 -1.9453125 1.96875 C-1.30335938 1.3190625 -0.66140625 0.669375 0 0 Z " fill="#E4861E" transform="translate(515,551)"/>
<path d="M0 0 C1.32 0.33 2.64 0.66 4 1 C1.69 3.31 -0.62 5.62 -3 8 C-3.66 7.34 -4.32 6.68 -5 6 C-4.01 5.67 -3.02 5.34 -2 5 C-0.78130071 2.49552484 -0.78130071 2.49552484 0 0 Z " fill="#3F2A28" transform="translate(387,536)"/>
<path d="M0 0 C0.33 0.66 0.66 1.32 1 2 C-0.21480305 5.42353587 -2.01771223 7.01180815 -5 9 C-5.66 8.67 -6.32 8.34 -7 8 C-4.69 5.36 -2.38 2.72 0 0 Z " fill="#D77D22" transform="translate(403,523)"/>
<path d="M0 0 C0.99 0.33 1.98 0.66 3 1 C0.69 3.31 -1.62 5.62 -4 8 C-4.33 7.01 -4.66 6.02 -5 5 C-4.34 5 -3.68 5 -3 5 C-2.67 3.68 -2.34 2.36 -2 1 C-1.34 1.33 -0.68 1.66 0 2 C0 1.34 0 0.68 0 0 Z " fill="#3B333B" transform="translate(427,497)"/>
<path d="M0 0 C0.33 0.66 0.66 1.32 1 2 C-1.65654657 5.73884332 -3.58110387 7.64978174 -8 9 C-7.04270084 7.87411986 -6.08412105 6.7493285 -5.125 5.625 C-4.59132813 4.99851562 -4.05765625 4.37203125 -3.5078125 3.7265625 C-2.38567993 2.44163349 -1.20628025 1.20628025 0 0 Z " fill="#4D453E" transform="translate(396,451)"/>
<path d="M0 0 C0.33 0.66 0.66 1.32 1 2 C-1.84936103 5.00765886 -4.23511958 7.27845212 -8 9 C-7.04270084 7.87411986 -6.08412105 6.7493285 -5.125 5.625 C-4.59132813 4.99851562 -4.05765625 4.37203125 -3.5078125 3.7265625 C-2.38567993 2.44163349 -1.20628025 1.20628025 0 0 Z " fill="#CF7828" transform="translate(530,536)"/>
<path d="M0 0 C0.33 0 0.66 0 1 0 C1 3.96 1 7.92 1 12 C-0.32 11.67 -1.64 11.34 -3 11 C-2.34 10.01 -1.68 9.02 -1 8 C-0.54860541 5.9507906 -0.54860541 5.9507906 -0.375 3.8125 C-0.25125 2.554375 -0.1275 1.29625 0 0 Z " fill="#101A34" transform="translate(648,477)"/>
<path d="M0 0 C0 2 0 2 -1.1875 3.625 C-3.55560662 5.42149467 -5.09897251 5.23521845 -8 5 C-7.67 4.34 -7.34 3.68 -7 3 C-6.34 3 -5.68 3 -5 3 C-5 2.34 -5 1.68 -5 1 C-2 0 -2 0 0 0 Z " fill="#162944" transform="translate(447,571)"/>
<path d="M0 0 C1.65 0 3.3 0 5 0 C3.02 2.31 1.04 4.62 -1 7 C-1.33 6.01 -1.66 5.02 -2 4 C-1.01 3.67 -0.02 3.34 1 3 C0.67 2.01 0.34 1.02 0 0 Z " fill="#2E1E1D" transform="translate(357,565)"/>
<path d="M0 0 C0.99 0.33 1.98 0.66 3 1 C0.03 3.475 0.03 3.475 -3 6 C-2.42655063 3.13275314 -2.1385485 2.1385485 0 0 Z " fill="#313949" transform="translate(480,530)"/>
<path d="M0 0 C1.32 0.33 2.64 0.66 4 1 C3.01 1 2.02 1 1 1 C1.33 1.99 1.66 2.98 2 4 C1.360625 4.12375 0.72125 4.2475 0.0625 4.375 C-0.9584375 4.684375 -0.9584375 4.684375 -2 5 C-2.33 5.66 -2.66 6.32 -3 7 C-3.66 6.67 -4.32 6.34 -5 6 C-3.35 4.02 -1.7 2.04 0 0 Z " fill="#D07C17" transform="translate(392,477)"/>
<path d="M0 0 C0.66 0 1.32 0 2 0 C2 1.65 2 3.3 2 5 C0.68 5.33 -0.64 5.66 -2 6 C-1.34 4.02 -0.68 2.04 0 0 Z " fill="#E38E4B" transform="translate(539,502)"/>
<path d="M0 0 C0.66 0 1.32 0 2 0 C1.64950425 3.24208567 1.43778819 4.61527704 -1.0625 6.8125 C-1.701875 7.204375 -2.34125 7.59625 -3 8 C-3.66 7.67 -4.32 7.34 -5 7 C-4.0409375 6.1028125 -4.0409375 6.1028125 -3.0625 5.1875 C-0.79689611 3.09189663 -0.79689611 3.09189663 0 0 Z " fill="#503E31" transform="translate(556,489)"/>
<path d="M0 0 C0.66 0 1.32 0 2 0 C2.33 2.31 2.66 4.62 3 7 C2.01 7 1.02 7 0 7 C0 4.69 0 2.38 0 0 Z " fill="#E29025" transform="translate(384,467)"/>
<path d="M0 0 C0.33 0 0.66 0 1 0 C1.375 2.1875 1.375 2.1875 1 5 C-0.83961648 6.99022836 -2.79186148 8.38989899 -5 10 C-4.67 8.68 -4.34 7.36 -4 6 C-3.34 6 -2.68 6 -2 6 C-2 5.34 -2 4.68 -2 4 C-1.34 4 -0.68 4 0 4 C0 2.68 0 1.36 0 0 Z " fill="#E6952C" transform="translate(428,415)"/>
<path d="M0 0 C0.33 0.99 0.66 1.98 1 3 C0.01 4.485 0.01 4.485 -1 6 C-2.32 5.67 -3.64 5.34 -5 5 C-3.35 3.35 -1.7 1.7 0 0 Z " fill="#E18129" transform="translate(563,503)"/>
</svg>
